<?xml version="1.0" standalone="no"?><!DOCTYPE svg PUBLIC "-//W3C//DTD SVG 1.1//EN" "http://www.w3.org/Graphics/SVG/1.1/DTD/svg11.dtd"><svg t="1580965400108" class="icon" viewBox="0 0 1024 1024" version="1.1" xmlns="http://www.w3.org/2000/svg" p-id="1236" xmlns:xlink="http://www.w3.org/1999/xlink" width="200" height="200"><defs><style type="text/css"></style></defs><path d="M782.426059 824.924989l-584.588225-584.727395c-11.987009-11.990079-11.984962-31.42778 0.005116-43.414789 11.990079-11.987009 31.42778-11.984962 43.414789 0.005117l584.588225 584.727395c11.987009 11.990079 11.984962 31.42778-0.005116 43.414788-11.989055 11.988032-31.42778 11.984962-43.414789-0.005116z" fill="" p-id="1237"></path><path d="M197.768249 824.856427c-11.987009-11.990079-11.984962-31.42778 0.005117-43.414788l584.727394-584.589249c11.990079-11.987009 31.42778-11.984962 43.414789 0.005117 11.987009 11.990079 11.984962 31.42778-0.005116 43.414788l-584.727395 584.589249c-11.990079 11.987009-31.42778 11.984962-43.414789-0.005117z" fill="" p-id="1238"></path></svg>