<?xml version="1.0" standalone="no"?><!DOCTYPE svg PUBLIC "-//W3C//DTD SVG 1.1//EN" "http://www.w3.org/Graphics/SVG/1.1/DTD/svg11.dtd"><svg t="1575955914654" class="icon" viewBox="0 0 1024 1024" version="1.1" xmlns="http://www.w3.org/2000/svg" p-id="1234" xmlns:xlink="http://www.w3.org/1999/xlink" width="200" height="200"><defs><style type="text/css"></style></defs><path d="M661.845333 682.666667C626.773333 682.666667 597.333333 654.208 597.333333 619.136c0-35.072 29.44-64.469333 64.512-64.469333 35.072 0 63.488 29.397333 63.488 64.469333S696.917333 682.666667 661.845333 682.666667m12.928 125.824c-34.432 30.165333-87.466667 44.842667-162.261333 44.842666h-1.066667c-74.752 0-127.786667-14.677333-162.176-44.842666a21.674667 21.674667 0 0 1 0-33.536 29.738667 29.738667 0 0 1 38.186667 0c23.722667 20.821333 64.298667 30.976 123.989333 30.976h1.066667c59.733333 0 100.309333-10.154667 124.074667-30.976a29.696 29.696 0 0 1 38.186666 0 21.76 21.76 0 0 1 0 33.536M298.666667 619.093333C298.666667 584.106667 328.106667 554.666667 363.136 554.666667c35.072 0 63.530667 29.44 63.530667 64.469333A63.573333 63.573333 0 0 1 363.136 682.666667C328.106667 682.666667 298.666667 654.208 298.666667 619.136M853.333333 170.666667a42.709333 42.709333 0 0 1 0 85.333333c-23.509333 0-42.666667-19.157333-42.666666-42.666667 0-23.509333 19.157333-42.666667 42.666666-42.666666m170.666667 353.024c0-70.613333-55.210667-128-123.050667-128-29.397333 0-56.362667 10.752-77.568 28.714666-75.008-49.066667-170.24-78.634667-272.341333-84.906666l53.248-175.146667 146.346667 35.84c3.84 55.466667 48.384 99.328 102.613333 99.328 56.746667 0 102.912-48.042667 102.912-107.093333S909.994667 85.333333 853.248 85.333333c-39.68 0-74.197333 23.466667-91.349333 57.813334L591.786667 101.546667a27.818667 27.818667 0 0 0-33.024 19.541333l-66.133334 217.429333c-109.994667 2.773333-213.376 32.426667-293.930666 84.394667a119.466667 119.466667 0 0 0-75.690667-27.221333C55.210667 395.648 0 453.12 0 523.690667c0 43.648 21.12 82.261333 53.290667 105.386666a233.728 233.728 0 0 0-2.048 30.72c0 88.234667 49.28 170.368 138.837333 231.125334C275.882667 949.248 389.504 981.333333 509.909333 981.333333s234.026667-32.085333 319.872-90.410666c89.514667-60.757333 138.837333-142.890667 138.837334-231.125334 0-9.429333-0.64-18.773333-1.706667-28.074666A129.28 129.28 0 0 0 1024 523.690667" fill="#FF4500" p-id="1235"></path></svg>