<?xml version="1.0" standalone="no"?><!DOCTYPE svg PUBLIC "-//W3C//DTD SVG 1.1//EN" "http://www.w3.org/Graphics/SVG/1.1/DTD/svg11.dtd"><svg t="1575954337835" class="icon" viewBox="0 0 1024 1024" version="1.1" xmlns="http://www.w3.org/2000/svg" p-id="1114" xmlns:xlink="http://www.w3.org/1999/xlink" width="200" height="200"><defs><style type="text/css"></style></defs><path d="M554.666667 512a42.666667 42.666667 0 0 1 42.666666 42.666667v21.333333a42.666667 42.666667 0 1 1-85.333333 0V554.666667a42.666667 42.666667 0 0 1 42.666667-42.666667zM725.333333 512a42.666667 42.666667 0 0 1 42.666667 42.666667v21.333333a42.666667 42.666667 0 1 1-85.333333 0V554.666667a42.666667 42.666667 0 0 1 42.666666-42.666667z" fill="#75C82B" p-id="1115"></path><path d="M298.666667 597.333333a298.666667 298.666667 0 0 1 298.666666-298.666666h85.333334a298.666667 298.666667 0 0 1 243.242666 472.021333l12.416 98.645333a42.666667 42.666667 0 0 1-53.845333 46.421334l-115.541333-32.426667A298.581333 298.581333 0 0 1 682.666667 896h-85.333334a298.666667 298.666667 0 0 1-298.666666-298.666667z m298.666666-213.333333a213.333333 213.333333 0 0 0 0 426.666667h85.333334c25.002667 0 48.938667-4.266667 71.125333-12.117334a42.666667 42.666667 0 0 1 25.728-0.853333l66.133333 18.517333-6.570666-52.181333a42.666667 42.666667 0 0 1 9.216-32.213333A213.333333 213.333333 0 0 0 682.666667 384h-85.333334z" fill="#75C82B" p-id="1116"></path><path d="M42.666667 448A362.666667 362.666667 0 0 1 405.333333 85.333333h128a361.856 361.856 0 0 1 270.293334 120.874667 42.666667 42.666667 0 0 1-63.573334 56.917333A276.522667 276.522667 0 0 0 533.333333 170.666667h-128a277.333333 277.333333 0 0 0-184.874666 484.053333 42.666667 42.666667 0 0 1 13.610666 39.04l-9.301333 54.058667 39.168-12.970667a42.666667 42.666667 0 1 1 26.794667 81.066667l-106.666667 35.242666a42.666667 42.666667 0 0 1-55.466667-47.701333l17.493334-101.802667A361.6 361.6 0 0 1 42.666667 448z" fill="#75C82B" p-id="1117"></path></svg>